#!OML:ASF I:\Actors\actors\Patient Classification 1\Patient 1\Session 1\Subject1.ASF
:FULLY-SPECIFIED
:DEGREES
516
root -0.162278 17.6083 7.69572 9.79295 -6.74173 -8.97829
lowerback 1.64543 0.812207 5.15455
upperback 0.638799 1.16912 3.20412
thorax -0.230062 0.584563 0.382166
lowerneck -4.12238 -5.47333 -2.91686
upperneck 13.9407 -8.3374 8.3658
head 5.34298 -3.72512 2.57363
rclavicle -9.94545e-015 2.56681e-014
rhumerus 14.5019 53.5453 -85.8631
rradius 139.721
rwrist -7.98068
rhand -37.9645 -81.5114
rfingers 7.12502
rthumb -11.005 -248.797
lclavicle -9.94545e-015 2.56681e-014
lhumerus 1.26198 -52.0382 98.9748
lradius 134.478
lwrist 38.9245
lhand -46.2939 -42.96
lfingers 7.12502
lthumb -19.0284 -13.8708
rfemur -11.6715 18.9098 24.0999
rtibia 9.56479
rfoot -11.1805 -14.8296
rtoes -0.779123
lfemur 1.60731 -42.4928 -8.67797
ltibia -2.77096
lfoot -31.6485 55.1074
ltoes 19.3478
517
root -0.160114 17.6072 7.69481 9.78918 -6.71584 -8.96687
lowerback 1.55036 0.75813 5.19408
upperback 0.674693 1.08804 3.18417
thorax -0.141144 0.546158 0.342787
lowerneck -4.55645 -5.50392 -2.94104
upperneck 14.455 -8.39866 8.23578
head 5.57649 -3.73894 2.51717
rclavicle -5.28022e-015 1.1691e-014
rhumerus 16.4735 53.9653 -83.8937
rradius 139.654
rwrist -8.10243
rhand -38.4595 -82.7182
rfingers 7.12502
rthumb -11.4824 -247.616
lclavicle -5.28022e-015 1.1691e-014
lhumerus 1.29552 -52.249 98.8277
lradius 134.406
lwrist 38.2359
lhand -46.466 -43.628
lfingers 7.12502
lthumb -19.1938 -14.5551
rfemur -11.6487 18.8399 24.0765
rtibia 9.52165
rfoot -11.1997 -14.8007
rtoes -0.730002
lfemur 1.57373 -42.459 -8.67537
ltibia -2.75135
lfoot -31.5451 55.0704
ltoes 19.3052
518
root -0.159218 17.6067 7.69264 9.79631 -6.72344 -8.94384
lowerback 1.49401 0.741298 5.22411
upperback 0.692812 1.06046 3.14268
thorax -0.0904073 0.53365 0.284877
lowerneck -4.85561 -5.55896 -3.02751
upperneck 14.8035 -8.48111 8.16072
head 5.7421 -3.77122 2.49097
rclavicle 1.11335e-014 5.89521e-015
rhumerus 17.1339 54.1597 -83.1674
rradius 139.654
rwrist -8.08549
rhand -38.8988 -83.1368
rfingers 7.12502
rthumb -11.9061 -247.222
lclavicle 1.11335e-014 5.89521e-015
lhumerus 1.34579 -52.5446 98.6319
lradius 134.374
lwrist 37.6729
lhand -46.7787 -44.4214
lfingers 7.12502
lthumb -19.4946 -15.3787
rfemur -11.6477 18.7779 24.0442
rtibia 9.47956
rfoot -11.1565 -14.7787
rtoes -1.28151
lfemur 1.50591 -42.3927 -8.6583
ltibia -2.7222
lfoot -31.5851 54.9866
ltoes 19.4078
519
root -0.159889 17.6068 7.68937 9.79647 -6.76564 -8.94004
lowerback 1.55699 0.775141 5.27234
upperback 0.643712 1.11387 3.07162
thorax -0.172129 0.558437 0.182873
lowerneck -4.95429 -5.62822 -3.081
upperneck 15.041 -8.58893 8.15651
head 5.842 -3.81786 2.48596
rclavicle -1.27145e-014 -7.0258e-015
rhumerus 16.933 54.1936 -83.2498
rradius 139.732
rwrist -8.12319
rhand -39.1598 -83.1962
rfingers 7.12502
rthumb -12.1577 -247.177
lclavicle -1.27145e-014 -7.0258e-015
lhumerus 1.279 -52.9889 98.4731
lradius 134.39
lwrist 37.1888
lhand -47.3671 -45.2937
lfingers 7.12502
lthumb -20.0602 -16.3093
rfemur -11.6279 18.7137 24.0414
rtibia 9.41553
rfoot -11.0756 -14.7192
rtoes -1.66424
lfemur 1.4356 -42.1795 -8.60385
ltibia -2.69329
lfoot -31.478 54.8368
ltoes 19.3726
520
root -0.161005 17.6072 7.68721 9.77252 -6.81456 -8.97351
lowerback 1.65154 0.811408 5.33445
upperback 0.587293 1.17364 3.01514
thorax -0.278657 0.585704 0.0873378
lowerneck -4.98433 -5.68807 -2.92055
upperneck 15.2357 -8.66979 7.94492
head 5.89715 -3.85652 2.38544
rclavicle -2.24658e-014 -2.89729e-014
rhumerus 16.6902 54.3155 -83.3578
rradius 139.887
rwrist -8.35331
rhand -39.3165 -83.4241
rfingers 7.12502
rthumb -12.3088 -246.958
lclavicle -2.24658e-014 -2.89729e-014
lhumerus 1.10551 -53.5744 98.3261
lradius 134.456
lwrist 36.3492
lhand -48.1638 -46.6493
lfingers 7.12502
lthumb -20.8257 -17.747
rfemur -11.5374 18.7044 24.0893
rtibia 9.29444
rfoot -11.0418 -14.666
rtoes -1.41097
lfemur 1.40794 -41.8532 -8.5287
ltibia -2.67526
lfoot -31.1729 54.6512
ltoes 19.1413
521
root -0.16183 17.6069 7.68717 9.71964 -6.83786 -9.03998
lowerback 1.60816 0.826864 5.36585
upperback 0.645371 1.18791 3.03329
thorax -0.193722 0.59516 0.089642
lowerneck -5.03626 -5.71471 -2.59092
upperneck 15.3166 -8.66462 7.43543
head 5.89489 -3.86653 2.17092
rclavicle 1.79217e-015 6.13499e-014
rhumerus 16.6877 54.5887 -83.2165
rradius 140.101
rwrist -8.80429
rhand -39.404 -83.5967
rfingers 7.12502
rthumb -12.3932 -246.791
lclavicle 1.79217e-015 6.13499e-014
lhumerus 1.15037 -54.2527 97.9929
lradius 134.512
lwrist 34.9852
lhand -49.2035 -48.7959
lfingers 7.12502
lthumb -21.8244 -20.0065
rfemur -11.3438 18.7634 24.1924
rtibia 9.07872
rfoot -11.0374 -14.7226
rtoes -1.23029
lfemur 1.446 -41.5561 -8.46048
ltibia -2.67968
lfoot -30.7513 54.504
ltoes 18.8603
522
root -0.161885 17.6061 7.68874 9.66704 -6.80336 -9.09436
lowerback 1.48696 0.854972 5.37631
upperback 0.74266 1.21023 3.06709
thorax -0.0252212 0.610712 0.121392
lowerneck -5.18375 -5.74546 -2.36466
upperneck 15.4622 -8.67565 7.03177
head 5.93931 -3.87905 2.00178
rclavicle 1.89777e-015 6.95746e-016
rhumerus 16.744 54.6554 -82.994
rradius 140.269
rwrist -9.41958
rhand -39.3118 -83.5669
rfingers 7.12502
rthumb -12.3043 -246.815
lclavicle 1.89777e-015 6.95746e-016
lhumerus 1.3167 -54.9761 97.5944
lradius 134.488
lwrist 33.4008
lhand -50.3277 -50.9917
lfingers 7.12502
lthumb -22.9036 -22.332
rfemur -11.0898 18.8219 24.2878
rtibia 8.76227
rfoot -10.9696 -14.8957
rtoes -1.50818
lfemur 1.48193 -41.35 -8.40914
ltibia -2.69098
lfoot -30.2608 54.3998
ltoes 18.5524
523
root -0.161833 17.6057 7.69088 9.59339 -6.71574 -9.11833
lowerback 1.43693 0.898018 5.39584
upperback 0.793389 1.26091 3.07464
thorax 0.0572399 0.638291 0.119194
lowerneck -5.35334 -5.79016 -2.281
upperneck 15.698 -8.72866 6.82294
head 6.03264 -3.904 1.91178
rclavicle 7.0817e-015 -6.53505e-015
rhumerus 16.6505 54.4461 -82.8911
rradius 140.272
rwrist -9.91261
rhand -39.1296 -83.4886
rfingers 7.12502
rthumb -12.1286 -246.883
lclavicle 7.0817e-015 -6.53505e-015
lhumerus 1.34183 -55.581 97.341
lradius 134.424
lwrist 32.1508
lhand -51.1865 -52.5407
lfingers 7.12502
lthumb -23.7275 -23.9854
rfemur -10.7977 18.8513 24.3482
rtibia 8.4256
rfoot -10.9193 -15.0567
rtoes -1.43063
lfemur 1.50926 -41.1568 -8.3848
ltibia -2.68815
lfoot -29.755 54.2514
ltoes 18.1938
524
root -0.162276 17.6057 7.69314 9.46512 -6.60685 -9.14639
lowerback 1.44466 0.920252 5.41252
upperback 0.832335 1.28913 3.09511
thorax 0.0939731 0.65359 0.130988
lowerneck -5.26986 -5.77797 -2.19247
upperneck 15.6999 -8.6902 6.63462
head 6.00461 -3.89517 1.84427
rclavicle 1.06412e-014 -1.7667e-014
rhumerus 16.6092 54.4214 -82.7121
rradius 140.259
rwrist -10.3103
rhand -39.1897 -83.4411
rfingers 7.12502
rthumb -12.1866 -246.934
lclavicle 1.06412e-014 -1.7667e-014
lhumerus 1.36019 -55.7944 97.1014
lradius 134.302
lwrist 31.4046
lhand -51.5953 -53.9827
lfingers 7.12502
lthumb -24.1195 -25.4789
rfemur -10.4494 18.8377 24.428
rtibia 8.11614
rfoot -10.9341 -15.1393
rtoes -1.14602
lfemur 1.58115 -40.9097 -8.37741
ltibia -2.67591
lfoot -29.2407 54.0303
ltoes 17.7605
525
root -0.159258 17.6016 7.6925 9.45024 -6.61003 -9.17744
lowerback 1.36436 0.951261 5.40205
upperback 0.826923 1.32418 3.14067
thorax 0.133445 0.671635 0.184725
lowerneck -5.10911 -5.76661 -2.49888
upperneck 15.718 -8.66195 6.75197
head 5.99904 -3.89398 1.93733
rclavicle 9.4908e-015 4.83823e-014
rhumerus 16.7452 54.7012 -82.3098
rradius 140.323
rwrist -10.7566
rhand -39.6773 -82.9441
rfingers 7.12502
rthumb -12.6567 -247.459
lclavicle 9.4908e-015 4.83823e-014
lhumerus 1.66146 -55.662 96.5934
lradius 134.061
lwrist 30.9738
lhand -51.6619 -55.7192
lfingers 7.12502
lthumb -24.1833 -27.2239
rfemur -10.329 18.7498 24.4437
rtibia 7.92236
rfoot -10.9173 -15.0611
rtoes -1.33718
lfemur 1.47424 -40.5611 -8.28715
ltibia -2.59915
lfoot -28.8926 53.7888
ltoes 17.3578
